<?xml version="1.0" encoding="UTF-8"?>
<svg width="400" height="100" viewBox="-200 -50 400 100"
	xmlns="http://www.w3.org/2000/svg">
	<title>馬傌</title>
	<!-- 此字型為全字庫正楷體，中華民國國家發展委員會，CNS11643中文標準交換碼全字庫網站，https://www.cns11643.gov.tw/。 -->
	<g transform="translate(-150,0)"><circle r="48.5" stroke-width="3" stroke="#c00" fill="#fda"/><circle r="43.5" stroke-width="3" stroke="#c00" fill="none"/><path transform="scale(0.267)" fill="#c00" d="M-48,-105C-49,-103 -50,-101 -50,-94C-51,-83 -55,-73 -63,-58C-76,-36 -91,-16 -107,1C-117,11 -117,12 -116,15C-115,18 -112,18 -106,15C-99,11 -82,-3 -75,-11C-71,-15 -68,-18 -68,-18C-67,-18 -67,8 -68,22C-70,42 -72,60 -74,68C-77,77 -76,80 -74,88C-68,104 -60,107 -55,95C-52,87 -51,81 -50,43C-50,23 -49,1 -48,-7C-47,-25 -46,-24 -51,-29L-56,-34 -49,-45C-45,-51 -39,-61 -36,-67C-32,-73 -28,-80 -25,-83C-23,-86 -21,-88 -21,-89C-21,-93 -28,-102 -35,-105C-40,-108 -45,-108 -48,-105M73,-103C68,-101 38,-96 21,-94C6,-92 6,-92 0,-94C-7,-96 -12,-97 -14,-94C-16,-92 -16,-92 -14,-86C-12,-81 -12,-78 -11,-65C-10,-38 -14,-2 -17,3C-20,7 -19,12 -16,18C-11,26 -10,26 2,22C12,17 44,13 72,11C90,11 90,10 89,24C89,36 86,59 83,67C81,75 77,80 72,83C68,85 65,84 57,80C50,77 47,76 45,80C44,81 45,82 49,90C52,94 56,101 58,105C63,114 66,117 70,117C79,115 92,105 97,95C102,85 107,65 111,37C112,26 113,23 115,18C121,8 119,4 103,-4C94,-9 92,-9 83,-7C80,-6 71,-5 64,-4L50,-2 50,-10C50,-16 50,-18 51,-18C55,-18 78,-21 81,-22C87,-23 88,-25 88,-28C88,-31 84,-34 77,-36C71,-37 72,-37 54,-34L51,-34 51,-41C51,-45 51,-49 52,-49C52,-50 59,-51 67,-52C88,-55 92,-57 89,-63C88,-65 86,-66 80,-68L73,-70 63,-68C58,-67 54,-66 53,-66C52,-66 52,-72 53,-74C54,-75 54,-77 54,-79C54,-81 55,-82 56,-82C58,-83 65,-84 73,-85C89,-88 93,-89 95,-92C99,-98 82,-106 73,-103M31,-76C31,-75 32,-71 32,-68L32,-62 23,-61C18,-60 12,-60 11,-59C8,-59 8,-59 8,-63C8,-66 8,-70 9,-73L10,-78 16,-78C20,-78 24,-79 26,-79C29,-79 30,-79 31,-76M32,-39C32,-35 31,-32 31,-31C30,-31 6,-27 5,-27C5,-27 5,-31 6,-36L7,-44 13,-45C17,-45 22,-45 24,-46C33,-48 32,-48 32,-39M31,-8C31,-3 31,0 30,0C30,0 24,1 18,2C11,3 5,4 5,4C4,4 4,0 4,-4L4,-13 14,-14C20,-14 26,-15 28,-15L31,-15 31,-8M46,22C44,24 44,25 52,42C57,52 59,55 62,57C66,60 68,60 71,56C80,46 75,31 60,24C52,20 49,19 46,22M-27,30C-27,31 -29,35 -30,40C-32,44 -35,51 -37,54C-42,63 -43,68 -42,73C-40,80 -38,83 -35,84C-25,88 -13,64 -16,43C-17,38 -18,33 -19,32C-21,28 -25,27 -27,30M17,30C14,33 14,33 23,50C28,61 30,64 33,65C37,68 40,67 43,62C46,57 47,50 44,44C42,40 36,34 30,31C21,28 19,28 17,30M-8,35C-11,37 -10,38 -7,50C-1,71 5,77 12,71C16,67 17,64 17,58C17,50 12,43 2,37C-4,33 -6,32 -8,35"/></g>
	<g transform="translate(-50,0)"><circle r="48.5" stroke-width="3" stroke="#c00" fill="#fda"/><circle r="43.5" stroke-width="3" stroke="#c00" fill="none"/><path transform="scale(0.2)" stroke-linecap="round" stroke-linejoin="round" stroke-width="20" stroke="#c00" fill="none" d="M27,-116Q52,-116 85,-105L73,-70 145,0C168,25 151,53 115,45L40,28Q70,75 78,120L-127,120Q-140,-80 -30,-110M18,-68 22,-158Q-35,-125 -39,-75M70,-35A5,5 180 0 0 70,-25A5,5 180 0 0 70,-35"/></g>
	<g transform="translate(50,0)"><circle r="48.5" stroke-width="3" stroke="#000" fill="#fda"/><circle r="43.5" stroke-width="3" stroke="#000" fill="none"/><path transform="scale(0.267)" fill="#000" d="M27,-107C18,-106 -0,-103 -13,-101C-34,-98 -38,-98 -41,-99C-55,-103 -56,-103 -59,-102C-63,-100 -63,-95 -60,-91C-57,-85 -56,-74 -57,-51C-58,-22 -60,-9 -63,-3C-67,3 -67,5 -64,10C-59,20 -54,23 -46,19C-30,11 7,6 54,4C68,4 72,4 73,5C76,7 75,15 73,34C69,62 66,73 61,80C59,81 57,83 56,83C55,83 50,81 44,80C33,75 32,75 30,78C28,81 28,81 38,94C41,99 45,105 47,109C51,117 53,118 60,115C67,112 76,104 81,96C85,90 90,76 92,66C93,62 94,50 95,38C98,18 98,16 101,10C106,1 105,-1 100,-5C95,-9 80,-16 77,-16C75,-16 71,-15 67,-15C61,-13 20,-9 13,-9C11,-9 11,-9 11,-16L12,-24 30,-26C40,-27 50,-28 53,-29C57,-30 61,-33 61,-35C61,-37 56,-41 51,-43C46,-45 44,-45 37,-45C32,-44 25,-43 21,-43L13,-41 13,-48L13,-54 19,-54C33,-56 53,-59 55,-60C56,-61 57,-62 58,-63C60,-68 54,-73 43,-75C38,-76 36,-76 26,-74C19,-72 14,-71 14,-71C13,-71 14,-73 14,-76C15,-78 15,-82 16,-84C16,-87 17,-88 18,-88C20,-89 29,-90 39,-92C59,-95 63,-96 64,-101C64,-104 61,-107 54,-110C48,-112 45,-111 27,-107M-11,-82C-11,-81 -10,-77 -10,-74C-10,-67 -9,-68 -24,-66C-39,-64 -38,-64 -38,-69C-37,-71 -37,-75 -36,-78L-36,-84 -26,-84C-20,-84 -15,-85 -14,-85C-13,-85 -12,-84 -11,-82M-9,-45L-9,-38 -20,-37C-26,-36 -33,-36 -35,-35C-40,-35 -40,-35 -40,-38C-40,-44 -39,-50 -38,-49C-37,-49 -16,-50 -10,-51C-9,-51 -9,-49 -9,-45M-10,-10L-11,-6 -25,-3C-43,-0 -42,-0 -42,-6C-42,-9 -42,-13 -41,-15L-41,-20 -33,-19C-29,-19 -22,-19 -18,-20L-11,-21 -10,-17C-10,-16 -10,-12 -10,-10M18,21C17,21 16,23 16,24C16,28 39,54 44,56C48,56 52,54 54,51C57,47 57,36 54,32C52,28 43,24 32,22C20,19 20,19 18,21M-88,24C-89,25 -90,29 -91,31C-93,38 -94,41 -100,51C-104,59 -105,62 -105,65C-105,71 -103,79 -100,81C-97,84 -92,84 -88,81C-85,77 -79,66 -77,57C-74,41 -77,23 -84,22C-86,22 -87,23 -88,24M-20,26C-23,29 -21,33 -13,45C-7,54 -0,60 3,60C6,60 11,55 12,52C13,47 12,40 10,36C6,30 -16,22 -20,26M-60,30C-62,31 -61,36 -55,46C-47,61 -41,66 -35,64C-30,62 -27,51 -31,43C-33,39 -39,34 -48,31C-53,29 -59,28 -60,30"/></g>
	<g transform="translate(150,0)"><circle r="48.5" stroke-width="3" stroke="#000" fill="#fda"/><circle r="43.5" stroke-width="3" stroke="#000" fill="none"/><path transform="scale(0.2)" stroke-linecap="round" stroke-linejoin="round" stroke-width="20" stroke="#000" fill="none" d="M27,-116Q52,-116 85,-105L73,-70 145,0C168,25 151,53 115,45L40,28Q70,75 78,120L-127,120Q-140,-80 -30,-110M18,-68 22,-158Q-35,-125 -39,-75M70,-35A5,5 180 0 0 70,-25A5,5 180 0 0 70,-35"/></g>
</svg>
