<?xml version="1.0" encoding="UTF-8"?>
<svg width="400" height="100" viewBox="-200 -50 400 100"
	xmlns="http://www.w3.org/2000/svg">
	<title>砲炮</title>
	<!-- 此字型為全字庫正楷體，中華民國國家發展委員會，CNS11643中文標準交換碼全字庫網站，https://www.cns11643.gov.tw/。 -->
	<g transform="translate(-150,0)"><circle r="48.5" stroke-width="3" stroke="#c00" fill="#fda"/><circle r="43.5" stroke-width="3" stroke="#c00" fill="none"/><path transform="scale(0.267)" fill="#c00" d="M9,-112C8,-110 7,-108 7,-104C7,-98 4,-85 -1,-72C-4,-62 -16,-36 -24,-23C-27,-17 -27,-16 -26,-14C-25,-13 -25,-11 -26,-11C-27,-10 -29,-6 -29,-4C-27,1 -26,13 -27,38C-29,77 -27,85 -17,95C-11,101 -2,105 11,109C19,111 23,111 40,112C78,113 101,107 117,92C123,85 123,83 119,77C115,71 113,66 110,53C108,42 106,38 103,38C100,38 98,41 96,52C93,71 90,79 81,83C67,91 30,93 7,87C-2,85 -6,83 -8,78C-10,74 -10,72 -10,59L-11,45 4,42C11,40 19,39 21,38C28,37 31,33 26,28C25,26 25,25 28,17C30,12 32,5 34,3C39,-5 39,-7 35,-11C32,-13 24,-17 19,-18C17,-19 14,-18 10,-16C6,-14 -0,-12 -5,-11C-12,-9 -13,-9 -16,-10L-20,-12 -10,-22C-5,-27 1,-33 2,-34L4,-37 8,-35C13,-34 13,-34 21,-37C31,-41 49,-46 56,-47C60,-47 62,-47 64,-46C66,-45 66,-44 66,-36C63,-5 57,22 53,24C52,24 48,23 45,21C39,19 37,19 35,20C31,21 31,24 37,31C40,34 43,39 45,42C50,52 53,53 61,49C66,47 72,38 75,30C78,24 81,8 84,-15C86,-24 88,-34 89,-38C90,-42 91,-47 92,-48C93,-52 90,-56 83,-61C79,-64 75,-66 73,-66C71,-67 67,-66 60,-64C54,-62 43,-59 35,-57C14,-52 13,-52 13,-53C15,-58 31,-88 33,-91C37,-96 37,-99 33,-103C29,-108 18,-114 15,-114C13,-114 11,-113 9,-112M-80,-105C-83,-103 -82,-101 -80,-94C-75,-82 -75,-17 -80,12C-85,42 -95,65 -114,87C-121,95 -123,99 -119,101C-113,104 -88,83 -78,66C-75,62 -71,55 -70,51C-68,47 -67,43 -67,43C-66,43 -63,48 -58,54C-46,70 -43,72 -37,66C-34,64 -34,63 -33,57C-33,47 -38,41 -55,34C-59,33 -63,32 -63,31C-63,31 -62,28 -62,24C-60,17 -57,-10 -57,-18C-57,-19 -56,-20 -54,-21C-52,-22 -46,-26 -41,-31C-35,-35 -29,-39 -26,-41C-24,-42 -21,-45 -20,-46L-18,-49 -20,-54C-24,-62 -36,-69 -41,-66C-42,-66 -44,-61 -46,-56C-49,-47 -52,-41 -54,-38C-56,-36 -56,-36 -56,-39C-56,-52 -54,-81 -52,-88C-51,-92 -50,-96 -51,-97C-51,-99 -59,-105 -65,-106C-71,-108 -78,-107 -80,-105M-115,-33C-119,-31 -118,-26 -112,-13C-103,5 -97,11 -90,8C-86,5 -84,1 -84,-6C-84,-17 -90,-25 -101,-30C-109,-34 -112,-34 -115,-33M11,1C11,2 10,7 9,13L7,24 3,25C1,26 -3,27 -6,28C-10,28 -10,28 -10,25C-9,24 -9,20 -9,16C-8,5 -7,3 -1,2C6,-0 11,-0 11,1"/></g>
	<g transform="translate(-50,0)"><circle r="48.5" stroke-width="3" stroke="#c00" fill="#fda"/><circle r="43.5" stroke-width="3" stroke="#c00" fill="none"/><path transform="scale(0.2)" stroke-linecap="round" stroke-linejoin="round" stroke-width="20" stroke="#c00" fill="none" d="M-75,35 -125,70 -170,70 -170,40 -130,40 -97,18C-130,-60 -75,-106 30,-69L164,-20L164,22 70,30M-5,-40A65,65 180 0 0 -5,90A65,65 180 0 0 -5,-40M-5,-10A35,35 180 0 0 -5,60A35,35 180 0 0 -5,-10"/></g>
	<g transform="translate(50,0)"><circle r="48.5" stroke-width="3" stroke="#000" fill="#fda"/><circle r="43.5" stroke-width="3" stroke="#000" fill="none"/><path transform="scale(0.267)" fill="#000" d="M14,-111C13,-110 13,-107 13,-105C13,-98 8,-84 2,-71C-3,-60 -17,-39 -26,-26C-32,-18 -32,-15 -27,-14C-23,-14 -11,-23 1,-36L11,-46 15,-45C18,-43 20,-43 28,-46C40,-48 54,-50 65,-50C75,-50 75,-50 75,-34C73,-4 69,11 64,12C63,13 60,12 56,10C49,6 47,6 46,9C45,11 46,13 52,25C55,32 59,39 60,40C61,41 63,42 65,42C69,42 79,35 83,29C90,20 91,14 95,-19C96,-38 96,-38 100,-46C101,-50 102,-53 101,-54C101,-57 90,-65 84,-68L79,-70 73,-68C65,-66 21,-59 20,-60C20,-61 33,-83 37,-88C39,-91 41,-94 41,-94C41,-104 18,-118 14,-111M-33,-66C-34,-66 -40,-65 -45,-63C-55,-61 -76,-56 -85,-55C-94,-54 -96,-53 -96,-50C-96,-45 -87,-40 -78,-40C-77,-40 -75,-40 -75,-39C-75,-37 -81,-21 -83,-16C-91,0 -105,18 -117,28C-126,37 -128,40 -127,42C-124,47 -104,39 -91,27C-89,25 -87,23 -87,24C-87,24 -86,31 -85,39C-83,55 -81,61 -77,63C-74,64 -71,63 -69,60C-68,57 -67,57 -51,56C-42,55 -33,53 -32,53C-29,51 -28,48 -31,45L-33,43 -29,30C-27,23 -24,16 -22,12C-18,6 -17,3 -20,1C-23,-2 -31,-6 -36,-7C-40,-8 -41,-8 -46,-6C-51,-3 -67,2 -70,2C-71,2 -71,1 -69,-1C-68,-2 -64,-8 -61,-15C-58,-21 -54,-27 -52,-29C-49,-32 -48,-35 -51,-40L-53,-43 -50,-43C-34,-47 -17,-51 -15,-52C-11,-56 -13,-60 -20,-64C-23,-65 -30,-67 -33,-66M26,-25C20,-23 7,-19 2,-19C1,-19 -2,-20 -3,-21C-6,-22 -10,-22 -12,-20C-14,-18 -14,-15 -12,-8C-11,-3 -11,0 -12,26C-13,57 -13,64 -9,75C-5,85 9,96 26,100C36,103 56,104 72,102C97,100 115,93 123,84C129,78 129,75 125,66C122,61 121,57 119,48C118,42 117,36 116,35C115,31 108,32 108,36C107,38 106,44 105,50C103,63 101,66 96,70C88,77 71,81 46,80C14,79 6,74 5,53C5,48 5,41 5,38L6,33 12,32C22,32 38,31 40,30C43,29 44,24 42,22C40,20 40,20 44,9C46,2 49,-4 52,-7C54,-10 56,-13 56,-14C57,-17 53,-21 46,-24C37,-28 33,-29 26,-25M27,-8C27,-7 26,-2 25,4C23,11 22,15 21,15C19,16 7,18 7,17C6,17 7,12 8,7C8,1 9,-4 9,-5C9,-6 19,-9 24,-9C26,-9 27,-9 27,-8M-46,12C-46,15 -50,38 -51,38C-52,39 -67,42 -68,42C-68,41 -68,35 -69,28L-69,14 -60,13C-49,11 -46,11 -46,12"/></g>
	<g transform="translate(150,0)"><circle r="48.5" stroke-width="3" stroke="#000" fill="#fda"/><circle r="43.5" stroke-width="3" stroke="#000" fill="none"/><path transform="scale(0.2)" stroke-linecap="round" stroke-linejoin="round" stroke-width="20" stroke="#000" fill="none" d="M-75,35 -125,70 -170,70 -170,40 -130,40 -97,18C-130,-60 -75,-106 30,-69L164,-20L164,22 70,30M-5,-40A65,65 180 0 0 -5,90A65,65 180 0 0 -5,-40M-5,-10A35,35 180 0 0 -5,60A35,35 180 0 0 -5,-10"/></g>
</svg>
