<?xml version="1.0" encoding="UTF-8"?>
<svg width="400" height="100" viewBox="-200 -50 400 100"
	xmlns="http://www.w3.org/2000/svg">
	<title>象相</title>
	<!-- 此字型為全字庫正楷體，中華民國國家發展委員會，CNS11643中文標準交換碼全字庫網站，https://www.cns11643.gov.tw/。 -->
	<g transform="translate(-150,0)"><circle r="48.5" stroke-width="3" stroke="#c00" fill="#fda"/><circle r="43.5" stroke-width="3" stroke="#c00" fill="none"/><path transform="scale(0.267)" fill="#c00" d="M-53,-114C-56,-111 -56,-108 -53,-100C-51,-95 -51,-92 -50,-70C-50,-51 -50,-46 -51,-46C-52,-46 -58,-45 -65,-44C-72,-43 -81,-42 -85,-41C-95,-41 -99,-39 -100,-36C-100,-33 -98,-30 -93,-27C-90,-26 -87,-26 -73,-26C-64,-26 -56,-26 -56,-25C-56,-24 -70,-0 -75,7C-82,18 -98,35 -109,44C-119,52 -121,56 -119,59C-117,61 -114,60 -103,55C-83,45 -70,33 -57,14L-52,7 -52,21C-53,39 -56,68 -59,79C-60,86 -60,88 -59,93C-57,101 -53,109 -49,111C-46,113 -46,113 -43,111C-42,110 -39,107 -38,104C-36,100 -36,98 -35,82C-34,72 -34,56 -34,45C-34,34 -33,20 -33,16L-33,7 -26,14C-19,24 -15,26 -10,26C-4,26 -1,20 -2,11C-4,4 -15,-5 -27,-9C-32,-11 -32,-11 -32,-13C-32,-15 -32,-19 -32,-23L-32,-31 -21,-33C-5,-36 -2,-37 1,-40C4,-43 3,-45 -1,-49C-7,-54 -16,-55 -25,-52C-28,-51 -30,-51 -31,-51C-31,-52 -29,-81 -27,-89C-24,-102 -24,-101 -28,-106C-33,-110 -43,-116 -48,-116C-50,-116 -52,-115 -53,-114M68,-74C63,-72 51,-69 42,-67C27,-64 24,-64 21,-65C15,-67 9,-67 7,-65C5,-63 5,-60 8,-52C10,-46 10,-44 11,-21C11,6 10,31 7,48C4,71 4,76 10,84C15,92 21,92 23,84L24,79 36,79C42,78 51,77 56,77C70,75 69,75 73,84C77,93 79,96 83,96C90,96 100,81 102,70C102,68 101,57 100,46C98,29 98,22 98,-5C98,-38 99,-46 102,-52C105,-58 105,-60 98,-66C92,-71 82,-77 79,-77C77,-77 73,-76 68,-74M74,-55C76,-53 76,-51 77,-39L77,-25 72,-26C68,-27 66,-27 57,-25C45,-22 33,-19 30,-19C29,-19 29,-21 29,-30C29,-36 29,-43 30,-46L30,-51 36,-52C52,-55 72,-57 74,-55M77,3L77,16 73,15C66,14 61,15 47,18C39,20 32,21 31,21L28,21 28,9L28,-3 33,-3C37,-3 72,-9 73,-10C73,-10 74,-10 75,-10C77,-10 77,-9 77,3M76,38C76,42 76,48 75,52C75,57 75,58 72,57C71,57 62,58 53,59C44,60 34,61 31,62L26,62 26,56C26,53 26,48 27,44L27,37 35,37C39,37 49,36 57,34C78,30 76,30 76,38"/></g>
	<g transform="translate(-50,0)"><circle r="48.5" stroke-width="3" stroke="#c00" fill="#fda"/><circle r="43.5" stroke-width="3" stroke="#c00" fill="none"/><path transform="scale(0.2)" stroke-linecap="round" stroke-linejoin="round" stroke-width="20" stroke="#c00" fill="none" d="M135,-50 160,-50Q125,135 60,40Q12,60 -18,-7Q-50,70 -140,10L-90,-100Q-70,-130 -25,-110Q70,-170 100,0L118,8zM28,48Q40,75 40,108L-138,108Q-138,60 -120,30M35,-10 35,30 180,10zM50,-60A5,5 180 0 0 50,-50A5,5 180 0 0 50,-60"/></g>
	<g transform="translate(50,0)"><circle r="48.5" stroke-width="3" stroke="#000" fill="#fda"/><circle r="43.5" stroke-width="3" stroke="#000" fill="none"/><path transform="scale(0.267)" fill="#000" d="M-35,-125C-36,-124 -38,-120 -39,-117C-42,-110 -57,-90 -68,-82C-72,-78 -76,-75 -76,-74C-77,-71 -75,-68 -72,-68C-69,-68 -56,-74 -47,-81L-39,-86 -30,-86C-25,-86 -19,-87 -16,-87C-12,-88 -9,-89 -9,-88C-9,-88 -13,-83 -19,-78L-29,-68 -47,-66C-58,-65 -66,-65 -67,-65C-72,-67 -81,-67 -83,-66C-85,-64 -84,-60 -81,-57C-77,-52 -77,-51 -74,-37C-71,-19 -65,-12 -58,-19C-56,-21 -55,-21 -50,-21L-45,-21 -47,-18C-52,-12 -69,0 -88,12C-95,16 -96,16 -96,19C-95,24 -93,24 -82,20C-70,16 -55,9 -45,2C-38,-2 -36,-3 -34,-2C-31,-0 -32,1 -39,8C-52,21 -70,33 -89,42C-101,49 -103,50 -103,52C-103,58 -93,57 -74,50C-57,44 -42,35 -26,21L-18,14 -17,17C-15,21 -17,23 -29,35C-48,52 -65,64 -91,76C-107,83 -109,85 -104,89C-101,90 -100,90 -93,89C-68,83 -42,71 -22,54L-12,46 -12,55C-12,64 -14,76 -17,80C-18,83 -22,85 -25,85C-27,85 -31,84 -35,82C-41,80 -43,80 -46,81C-50,82 -50,85 -44,90C-42,93 -35,99 -31,105C-26,111 -21,117 -20,117C-17,119 -10,116 -5,110C5,99 10,83 10,60C10,52 9,42 9,38C8,34 7,31 8,31C8,31 10,34 14,38C33,62 50,81 57,85C62,89 68,89 83,86C96,84 103,82 106,79C108,77 108,77 107,74C107,72 106,71 94,68C69,62 53,53 28,29L16,18 31,10C39,6 47,2 50,2C55,1 58,-1 58,-4C58,-8 50,-19 43,-23C38,-26 36,-25 32,-19C29,-11 11,9 7,9C7,9 5,8 3,7C1,6 -1,5 -2,5C-3,5 -6,3 -8,-0C-11,-3 -15,-7 -18,-9C-21,-10 -23,-12 -23,-12C-23,-12 -22,-13 -20,-13C-16,-14 -14,-18 -15,-21C-16,-24 -16,-24 -13,-24C-12,-25 -5,-25 3,-26L16,-26 19,-23C21,-20 22,-20 25,-20C30,-20 33,-23 41,-37C44,-45 49,-53 51,-55C54,-58 55,-61 55,-63C55,-66 50,-71 41,-75C33,-80 32,-80 14,-75C-0,-71 -5,-71 -5,-72C-3,-74 19,-91 24,-93C26,-94 28,-96 29,-97C30,-103 15,-113 7,-111C5,-111 -0,-109 -5,-107C-12,-104 -21,-102 -22,-102C-22,-103 -20,-104 -17,-106C-12,-109 -11,-111 -11,-113C-11,-116 -16,-121 -23,-124C-30,-126 -32,-126 -35,-125M25,-60C26,-59 26,-55 23,-47L20,-41 10,-41C4,-40 -2,-40 -5,-40L-9,-39 -9,-48L-9,-57 -5,-58C10,-60 23,-62 25,-60M-28,-45L-29,-37 -42,-36C-49,-35 -55,-35 -56,-35C-56,-35 -56,-39 -57,-44L-57,-52 -52,-52C-45,-53 -39,-54 -33,-54L-28,-54 -28,-45"/></g>
	<g transform="translate(150,0)"><circle r="48.5" stroke-width="3" stroke="#000" fill="#fda"/><circle r="43.5" stroke-width="3" stroke="#000" fill="none"/><path transform="scale(0.2)" stroke-linecap="round" stroke-linejoin="round" stroke-width="20" stroke="#000" fill="none" d="M135,-50 160,-50Q125,135 60,40Q12,60 -18,-7Q-50,70 -140,10L-90,-100Q-70,-130 -25,-110Q70,-170 100,0L118,8zM28,48Q40,75 40,108L-138,108Q-138,60 -120,30M35,-10 35,30 180,10zM50,-60A5,5 180 0 0 50,-50A5,5 180 0 0 50,-60"/></g>
</svg>
