<?xml version="1.0" encoding="UTF-8"?>
<svg width="400" height="100" viewBox="-200 -50 400 100"
	xmlns="http://www.w3.org/2000/svg">
	<title>卒兵</title>
	<!-- 此字型為全字庫正楷體，中華民國國家發展委員會，CNS11643中文標準交換碼全字庫網站，https://www.cns11643.gov.tw/。 -->
	<g transform="translate(-150,0)"><circle r="48.5" stroke-width="3" stroke="#c00" fill="#fda"/><circle r="43.5" stroke-width="3" stroke="#c00" fill="none"/><path transform="scale(0.267)" fill="#c00" d="M23,-116C21,-115 19,-113 17,-111C8,-103 -14,-91 -33,-83L-41,-80 -47,-84C-55,-88 -62,-88 -65,-85C-67,-83 -67,-81 -65,-75C-64,-72 -62,-65 -61,-59C-57,-36 -49,21 -50,22C-50,22 -57,23 -66,24C-113,27 -115,27 -117,29C-119,31 -118,33 -115,36C-111,40 -99,46 -95,46C-94,46 -85,45 -77,43C-37,35 -1,32 83,32C98,31 112,31 113,30C115,30 117,29 118,27C119,26 119,25 117,22C115,17 110,14 100,11L92,9 77,11C60,13 36,16 35,16C35,15 44,-17 45,-19C48,-23 47,-27 44,-31C42,-32 40,-34 39,-35C37,-36 37,-36 38,-36C45,-36 72,-40 74,-41C79,-45 75,-51 64,-55C55,-58 52,-58 42,-56C37,-54 19,-50 2,-46C-16,-43 -31,-40 -33,-39C-35,-39 -35,-39 -36,-50C-37,-66 -38,-66 -33,-67C-31,-67 -17,-71 -2,-75C14,-80 31,-84 38,-86C50,-88 52,-90 52,-95C52,-98 51,-100 46,-104C40,-110 32,-115 27,-116C26,-117 24,-116 23,-116M17,-29C19,-22 16,15 14,17C14,18 -27,20 -27,20C-28,20 -29,11 -30,1C-31,-8 -32,-18 -33,-21C-33,-23 -33,-25 -32,-25C-32,-24 -22,-26 -10,-28C18,-33 17,-33 17,-29M-39,43C-41,44 -43,47 -43,50C-43,53 -48,61 -54,67C-61,75 -79,91 -92,100C-102,107 -103,108 -101,111C-99,114 -96,114 -86,109C-69,102 -51,92 -36,80C-25,72 -19,67 -16,67C-15,66 -13,65 -12,64C-8,59 -12,53 -24,47C-31,43 -35,42 -39,43M14,49C13,49 12,51 12,52C12,53 17,59 23,66C29,72 39,83 44,89C59,107 68,113 74,109C79,107 80,103 80,95C79,81 70,70 51,60C40,55 26,49 19,48C17,47 16,48 14,49"/></g>
	<g transform="translate(-50,0)"><circle r="48.5" stroke-width="3" stroke="#c00" fill="#fda"/><circle r="43.5" stroke-width="3" stroke="#c00" fill="none"/><path transform="scale(0.2)" stroke-linecap="round" stroke-linejoin="round" stroke-width="20" stroke="#c00" fill="none" d="M-120,125Q-110,70 -65,43Q-135,-55 -34,-120L-35,-130A35,35 180 0 1 35,-130L34,-120Q135,-55 65,43Q110,70 120,125z"/></g>
	<g transform="translate(50,0)"><circle r="48.5" stroke-width="3" stroke="#000" fill="#fda"/><circle r="43.5" stroke-width="3" stroke="#000" fill="none"/><path transform="scale(0.267)" fill="#000" d="M-19,-123C-22,-121 -21,-118 -14,-104C-10,-97 -6,-90 -7,-90C-7,-90 -46,-86 -60,-85C-73,-85 -75,-85 -77,-83C-81,-79 -79,-73 -72,-71C-70,-70 -64,-70 -58,-69C-49,-69 -47,-68 -48,-67C-49,-67 -49,-64 -49,-60C-50,-50 -60,-33 -77,-14C-82,-10 -85,-5 -85,-4C-85,-3 -84,-1 -83,-1C-81,1 -80,1 -77,-1C-72,-3 -61,-10 -53,-18L-46,-24 -44,-22C-34,-7 -24,-1 -18,-6C-17,-7 -16,-10 -15,-12C-14,-16 -14,-17 -17,-22C-20,-28 -25,-32 -32,-35C-38,-36 -38,-35 -28,-46C-23,-52 -22,-55 -25,-59C-27,-62 -34,-67 -39,-68C-44,-70 -44,-70 -22,-71C11,-74 58,-79 67,-80C75,-82 79,-84 80,-88C80,-91 78,-94 72,-97C64,-101 56,-101 49,-99C45,-97 20,-93 16,-93C14,-93 14,-94 15,-98C16,-109 8,-117 -5,-122C-14,-124 -17,-124 -19,-123M33,-74C33,-73 32,-71 32,-69C32,-60 26,-44 15,-25C12,-20 10,-15 10,-15C10,-13 10,-13 6,-14C5,-15 1,-16 -3,-17C-9,-18 -9,-18 -11,-16C-13,-14 -13,-14 -12,-8C-11,0 -11,14 -12,14C-14,14 -49,17 -57,18C-62,19 -75,19 -87,20C-99,20 -109,21 -110,22C-113,22 -113,28 -110,31C-107,34 -102,37 -96,39C-89,40 -88,40 -68,36C-56,34 -37,31 -22,30L-11,30 -11,74C-11,116 -11,119 -10,122C-6,129 -1,128 3,120C7,110 9,97 10,66C11,50 11,35 12,32L12,28 27,28C36,27 57,27 75,27C107,27 108,26 111,24C112,23 114,21 114,20C115,15 103,8 91,6C86,5 83,5 72,7C57,9 45,11 25,12L12,12 13,8C13,5 14,3 15,1C16,-1 16,-5 15,-8C14,-9 14,-10 15,-10C17,-10 24,-15 31,-23L38,-29 46,-21C58,-8 64,-4 71,-5C76,-7 79,-18 75,-25C72,-29 64,-35 54,-37C49,-39 46,-40 46,-41C46,-43 53,-53 56,-56C58,-58 58,-59 58,-62C56,-69 37,-78 33,-74"/></g>
	<g transform="translate(150,0)"><circle r="48.5" stroke-width="3" stroke="#000" fill="#fda"/><circle r="43.5" stroke-width="3" stroke="#000" fill="none"/><path transform="scale(0.2)" stroke-linecap="round" stroke-linejoin="round" stroke-width="20" stroke="#000" fill="none" d="M-120,125Q-110,70 -65,43Q-135,-55 -34,-120L-35,-130A35,35 180 0 1 35,-130L34,-120Q135,-55 65,43Q110,70 120,125z"/></g>
</svg>
