<?xml version="1.0" encoding="UTF-8"?>
<svg width="400" height="100" viewBox="-200 -50 400 100"
	xmlns="http://www.w3.org/2000/svg">
	<title>將帥</title>
	<!-- 此字型為全字庫正楷體，中華民國國家發展委員會，CNS11643中文標準交換碼全字庫網站，https://www.cns11643.gov.tw/。 -->
	<g transform="translate(-150,0)"><circle r="48.5" stroke-width="3" stroke="#c00" fill="#fda"/><circle r="43.5" stroke-width="3" stroke="#c00" fill="none"/><path transform="scale(0.267)" fill="#c00" d="M24,-121C21,-118 21,-116 24,-110C26,-105 26,-103 27,-77C27,-55 27,-49 26,-48C23,-46 7,-46 0,-47C-5,-48 -7,-48 -9,-47C-12,-45 -13,-41 -10,-35C-6,-24 -6,-9 -12,8C-14,14 -15,18 -15,20C-12,34 -5,43 0,37C6,31 11,8 13,-21L13,-31 18,-31C20,-32 23,-32 25,-33L27,-33 27,38C27,103 27,109 28,114C30,118 31,120 32,121C37,123 40,120 43,108C47,94 48,81 49,21L51,-35 54,-36C55,-37 61,-37 66,-37L76,-38 76,-18C76,0 75,17 74,19C73,19 70,18 65,18C59,16 57,16 55,17C51,19 53,22 61,30C65,34 70,40 72,42C77,50 83,50 89,41C96,32 98,22 100,-14C101,-28 101,-33 102,-36C106,-44 103,-49 90,-55L83,-58 75,-56C67,-54 55,-52 52,-52C50,-52 51,-95 54,-105L55,-112 52,-116C48,-119 40,-122 32,-123C26,-123 25,-123 24,-121M-65,-116C-67,-114 -68,-113 -69,-107C-71,-93 -84,-63 -87,-65C-90,-66 -98,-66 -100,-65C-104,-63 -104,-61 -101,-54L-98,-48 -98,-22C-98,7 -99,24 -103,40C-104,50 -105,53 -104,57C-102,67 -95,77 -90,77C-87,77 -85,75 -85,71C-83,64 -83,64 -76,64C-50,61 -31,59 -29,58C-26,57 -26,52 -29,50C-31,48 -31,47 -28,37C-26,32 -24,24 -22,21C-20,17 -18,13 -18,12C-18,9 -22,5 -28,3C-37,-2 -41,-2 -49,2C-55,5 -62,7 -73,9L-80,11 -79,3C-79,-2 -79,-6 -79,-6C-78,-6 -57,-9 -44,-10C-39,-11 -33,-11 -32,-12C-29,-13 -29,-17 -30,-20C-32,-22 -32,-23 -29,-31C-27,-36 -24,-43 -21,-47C-19,-50 -17,-54 -17,-55C-17,-59 -26,-65 -35,-68C-38,-69 -39,-69 -51,-65C-57,-63 -65,-61 -67,-60L-72,-60 -69,-64C-67,-67 -62,-73 -58,-78C-55,-82 -49,-90 -45,-94C-42,-99 -39,-102 -39,-103C-39,-103 -40,-105 -41,-107C-42,-109 -45,-111 -51,-114C-60,-119 -62,-119 -65,-116M-46,-48C-47,-47 -48,-41 -49,-36L-50,-26 -62,-24C-69,-23 -75,-22 -76,-21C-78,-21 -78,-22 -78,-33L-78,-45 -71,-45C-68,-46 -61,-47 -57,-48C-47,-51 -46,-51 -46,-48M-47,19C-47,20 -47,26 -48,33L-50,44 -63,47C-82,50 -81,50 -81,43C-81,39 -81,34 -80,30L-80,24 -74,24C-71,23 -65,22 -60,21C-50,18 -48,18 -47,19"/></g>
	<g transform="translate(-50,0)"><circle r="48.5" stroke-width="3" stroke="#c00" fill="#fda"/><circle r="43.5" stroke-width="3" stroke="#c00" fill="none"/><path transform="scale(0.2)" stroke-linecap="round" stroke-linejoin="round" stroke-width="20" stroke="#c00" fill="none" d="M-24,-47Q0,-44 24,-47L24,-90 56,-85Q58,-109 56,-135L24,-130 25,-163Q0,-166 -25,-163L-24,-130 -56,-135Q-58,-109 -56,-85L-24,-90zM23,119 23,-42C100,-70 142,-60 142,13C142,60 117,110 92,160L-92,160C-117,110 -142,60 -142,13C-142,-60 -100,-70 -23,-42L-23,119M110,122 -110,122"/></g>
	<g transform="translate(50,0)"><circle r="48.5" stroke-width="3" stroke="#000" fill="#fda"/><circle r="43.5" stroke-width="3" stroke="#000" fill="none"/><path transform="scale(0.267)" fill="#000" d="M32,-110C31,-109 29,-104 28,-100C26,-94 24,-89 21,-85C16,-79 4,-68 -4,-61C-9,-57 -10,-54 -7,-52C-5,-50 2,-51 9,-56L16,-60 23,-54C27,-51 33,-46 36,-43L41,-37 34,-31C23,-22 7,-12 -4,-6C-14,-2 -16,1 -12,4C-11,6 -11,6 -14,6C-16,6 -19,6 -21,7C-23,8 -24,9 -24,11C-24,14 -22,16 -17,19C-9,23 -3,24 5,22C14,20 27,18 42,17L52,16 52,36C52,58 50,77 48,79C47,81 46,81 42,79C39,79 34,78 30,77C25,77 24,77 23,79C21,82 22,84 27,88C29,90 35,96 40,102C47,110 50,112 52,112C58,112 66,103 70,92C72,85 72,84 72,62C72,49 72,34 71,27L71,16 94,16C112,15 117,15 118,13C122,10 119,4 111,-1C103,-5 99,-5 85,-3C78,-2 73,-1 72,-1C72,-2 73,-5 73,-10C74,-16 74,-18 73,-20C71,-22 65,-25 61,-26L57,-26 66,-35C71,-40 79,-49 83,-55C88,-60 95,-67 97,-69C100,-71 103,-74 104,-75C106,-80 102,-85 91,-92C84,-96 81,-96 72,-93C66,-90 58,-88 52,-87L49,-86 53,-90C58,-95 58,-98 54,-102C50,-106 39,-111 35,-111C34,-111 32,-110 32,-110M-46,-105C-49,-103 -49,-101 -46,-92C-44,-86 -44,-83 -44,-63L-45,-41 -57,-39C-64,-38 -70,-37 -70,-37C-71,-38 -67,-60 -66,-63C-65,-65 -64,-68 -64,-70C-64,-77 -83,-87 -88,-82C-90,-80 -90,-77 -88,-72C-86,-66 -87,-55 -91,-39L-94,-26 -92,-22C-90,-17 -87,-14 -83,-13C-82,-12 -79,-13 -76,-16C-73,-18 -65,-21 -58,-24L-46,-28 -45,-13C-45,-5 -45,3 -45,3C-46,3 -54,5 -64,6C-79,8 -84,9 -91,8C-101,8 -103,8 -103,13C-103,18 -96,27 -89,29C-85,30 -85,31 -86,33C-87,41 -97,61 -103,70C-106,73 -110,78 -113,81C-119,86 -120,88 -118,91C-117,94 -114,93 -106,89C-96,84 -85,74 -78,64C-76,60 -70,50 -66,43C-60,30 -59,28 -59,25L-60,21 -53,19L-46,17 -46,24C-46,34 -49,63 -51,72C-52,83 -52,85 -50,92C-47,101 -42,107 -39,105C-34,104 -31,100 -29,92C-26,85 -26,84 -26,43C-26,-2 -25,-56 -23,-73C-23,-78 -21,-84 -21,-86C-20,-88 -19,-91 -19,-92C-19,-99 -39,-109 -46,-105M71,-73C71,-73 56,-52 55,-51C54,-50 53,-51 51,-53C48,-58 40,-63 33,-65C25,-68 28,-70 45,-70C52,-71 61,-72 64,-72C71,-74 71,-74 71,-73M23,-43C14,-40 -3,-37 -9,-37C-13,-37 -15,-37 -16,-35C-19,-32 -18,-29 -11,-23C-5,-17 -0,-15 3,-18C4,-19 11,-24 19,-28C29,-35 33,-37 33,-39C34,-42 34,-42 33,-44C30,-45 29,-45 23,-43M47,-14C48,-11 50,-7 50,-5C51,1 50,1 44,1C41,1 32,2 22,3C-9,7 -7,6 3,3C14,-0 33,-10 40,-14C42,-16 45,-18 45,-18C45,-18 47,-16 47,-14M-6,28C-8,29 -8,31 -7,32C-6,35 7,56 10,59C15,65 24,64 27,57C34,43 21,29 0,26C-4,26 -5,26 -6,28"/></g>
	<g transform="translate(150,0)"><circle r="48.5" stroke-width="3" stroke="#000" fill="#fda"/><circle r="43.5" stroke-width="3" stroke="#000" fill="none"/><path transform="scale(0.2)" stroke-linecap="round" stroke-linejoin="round" stroke-width="20" stroke="#000" fill="none" d="M-24,-47Q0,-44 24,-47L24,-90 56,-85Q58,-109 56,-135L24,-130 25,-163Q0,-166 -25,-163L-24,-130 -56,-135Q-58,-109 -56,-85L-24,-90zM23,119 23,-42C100,-70 142,-60 142,13C142,60 117,110 92,160L-92,160C-117,110 -142,60 -142,13C-142,-60 -100,-70 -23,-42L-23,119M110,122 -110,122"/></g>
</svg>
