<?xml version="1.0" encoding="UTF-8"?>
<svg width="400" height="100" viewBox="-200 -50 400 100"
	xmlns="http://www.w3.org/2000/svg">
	<title>士仕</title>
	<!-- 此字型為全字庫正楷體，中華民國國家發展委員會，CNS11643中文標準交換碼全字庫網站，https://www.cns11643.gov.tw/。 -->
	<g transform="translate(-150,0)"><circle r="48.5" stroke-width="3" stroke="#c00" fill="#fda"/><circle r="43.5" stroke-width="3" stroke="#c00" fill="none"/><path transform="scale(0.267)" fill="#c00" d="M-49,-106C-50,-105 -51,-103 -52,-98C-55,-72 -81,-30 -115,6C-123,14 -125,17 -122,20C-120,22 -116,21 -110,17C-89,1 -84,-3 -77,-11L-69,-20 -69,12C-70,44 -71,61 -74,72C-75,80 -75,84 -73,90C-70,98 -67,104 -64,105C-62,106 -62,106 -59,103C-52,97 -52,96 -51,48C-51,24 -51,0 -50,-5C-47,-26 -47,-23 -53,-29L-58,-34 -56,-36C-53,-40 -40,-61 -34,-72C-31,-76 -28,-82 -26,-84C-20,-89 -21,-92 -27,-98C-36,-107 -44,-110 -49,-106M14,-98C11,-95 11,-93 14,-86C18,-77 19,-69 19,-42L19,-18 -11,-14C-28,-12 -43,-9 -44,-9C-50,-6 -45,2 -35,5C-28,8 -22,7 -11,5C-1,3 15,0 18,0C20,0 20,2 20,27L20,55 -3,58C-26,61 -31,62 -31,65C-31,68 -27,73 -24,74C-16,78 -11,78 3,76C10,75 23,73 32,72C45,70 55,70 90,68C99,67 102,65 102,61C102,57 98,53 91,50C83,45 77,45 59,48C51,50 44,51 43,51C42,51 42,47 42,24C43,9 43,-3 43,-4C44,-4 86,-8 104,-9C119,-10 122,-11 124,-14C126,-18 122,-23 111,-28C103,-32 100,-33 92,-30C89,-30 78,-28 68,-26C57,-24 47,-23 46,-22L43,-22 43,-39C43,-60 44,-68 48,-77C50,-84 50,-84 49,-87C44,-96 20,-104 14,-98"/></g>
	<g transform="translate(-50,0)"><circle r="48.5" stroke-width="3" stroke="#c00" fill="#fda"/><circle r="43.5" stroke-width="3" stroke="#c00" fill="none"/><path transform="scale(0.2)" stroke-linecap="round" stroke-linejoin="round" stroke-width="20" stroke="#c00" fill="none" d="M0,-136 31,-96 107,-105 69,-35Q98,11 62,65Q102,94 112,150L-112,150Q-102,94 -62,65Q-98,11 -69,-35L-107,-105 -31,-96zM69,-35 -69,-35M40,0 20,18M-40,0 -20,18"/></g>
	<g transform="translate(50,0)"><circle r="48.5" stroke-width="3" stroke="#000" fill="#fda"/><circle r="43.5" stroke-width="3" stroke="#000" fill="none"/><path transform="scale(0.267)" fill="#000" d="M-23,-107C-26,-104 -26,-102 -22,-95L-19,-90 -18,-51C-18,-17 -18,-13 -19,-13C-20,-13 -34,-11 -51,-9C-67,-7 -87,-5 -96,-4C-104,-3 -112,-2 -114,-2C-122,1 -114,11 -99,18C-93,21 -91,21 -83,18C-75,15 -27,6 -20,6C-18,6 -18,8 -18,39C-18,64 -18,71 -19,71C-20,71 -30,72 -43,74C-55,75 -68,76 -72,76C-78,76 -79,76 -81,78C-85,82 -80,88 -70,92C-62,95 -57,95 -51,94C-34,90 -6,87 39,86C79,85 79,85 79,79C79,74 74,70 64,66C55,62 55,62 39,65C32,66 23,67 19,67C14,68 9,68 8,69L5,69 5,37C5,19 6,4 6,4C7,2 47,1 78,1C117,1 118,1 118,-5C118,-10 112,-15 103,-20C92,-24 91,-25 55,-20C39,-18 22,-17 16,-16C6,-15 6,-16 6,-17C6,-26 9,-73 10,-77C11,-79 12,-84 14,-87C16,-92 16,-93 15,-96C13,-102 -2,-109 -13,-110C-20,-110 -20,-110 -23,-107"/></g>
	<g transform="translate(150,0)"><circle r="48.5" stroke-width="3" stroke="#000" fill="#fda"/><circle r="43.5" stroke-width="3" stroke="#000" fill="none"/><path transform="scale(0.2)" stroke-linecap="round" stroke-linejoin="round" stroke-width="20" stroke="#000" fill="none" d="M0,-136 31,-96 107,-105 69,-35Q98,11 62,65Q102,94 112,150L-112,150Q-102,94 -62,65Q-98,11 -69,-35L-107,-105 -31,-96zM69,-35 -69,-35M40,0 20,18M-40,0 -20,18"/></g>
</svg>
